<svg xmlns="http://www.w3.org/2000/svg" viewBox="0 0 200 200"><defs><style>.cls-1{fill:#fff;}</style></defs><title>logo-white</title><g id="Layer_2" data-name="Layer 2"><path class="cls-1" d="M19.34,100.64A79.8,79.8,0,0,1,28.1,64.05a2,2,0,1,0-3.64-1.85,84.81,84.81,0,0,0,14.45,97.18,2,2,0,0,0,2.94-2.83A80.27,80.27,0,0,1,19.34,100.64Z"/><path class="cls-1" d="M176.16,63.43a2,2,0,1,0-3.67,1.8A80.73,80.73,0,0,1,158,156.67a2,2,0,0,0,2.94,2.84,84.81,84.81,0,0,0,15.2-96.08Z"/><path class="cls-1" d="M99,125.65a2,2,0,0,0-1.08-.31h0a2.11,2.11,0,0,0-1.09.31,2,2,0,0,0-.74.81c-1,1.58-7.95,13.21-7.63,20.49.26,5.95,3.29,7.23,4.58,7.51a4.82,4.82,0,0,0,4.88-1.87,4.8,4.8,0,0,0,3.9,2,4.68,4.68,0,0,0,1-.1c1.29-.28,4.32-1.56,4.58-7.51.32-7.28-6.66-18.91-7.63-20.49A2,2,0,0,0,99,125.65Zm3,24.8a.79.79,0,0,1-.7-.17L99.7,147.2a2,2,0,0,0-3.65,0l-1.53,3.06a.76.76,0,0,1-.72.2c-.43-.13-1.19-1.05-1.31-3.68-.18-4.14,3-11,5.38-15.32,2.38,4.36,5.56,11.18,5.38,15.32C103.14,149.41,102.38,150.33,101.95,150.46Z"/><path class="cls-1" d="M160.6,92.2a59,59,0,0,0-19.37-42A63.73,63.73,0,0,0,98,33.35h-.15A63.73,63.73,0,0,0,54.54,50.18a59,59,0,0,0-19.37,42,53.85,53.85,0,0,0,6,27.22,30.63,30.63,0,0,0,7.8,9.2,27.65,27.65,0,0,0-.57,5A24,24,0,0,0,55,150.11c2.51,2.49,5.32,3.66,8.12,3.38,3.18-.31,5-2.14,6.58-3.76a14.59,14.59,0,0,1,2.24-2c.89-.59,1.32-.59,1.38-.55s1.38.82,1.38,7.38c0,7.6,1.28,11.46,4.16,12.52a4.81,4.81,0,0,0,4.36-.75,6.09,6.09,0,0,0,3.8,1.72,4.88,4.88,0,0,0,3-.94,6.76,6.76,0,0,0,4.25,2h0a4.12,4.12,0,0,0,3.36-1.78l.23-.29.23.29a4.12,4.12,0,0,0,3.36,1.78h0a6.76,6.76,0,0,0,4.25-2,4.87,4.87,0,0,0,3,.94,6.09,6.09,0,0,0,3.8-1.72,4.81,4.81,0,0,0,4.36.75c2.88-1.06,4.16-4.93,4.16-12.52,0-6.56,1.36-7.37,1.38-7.38s.49,0,1.38.55a14.59,14.59,0,0,1,2.24,2c1.6,1.62,3.41,3.45,6.58,3.76,2.81.28,5.62-.9,8.12-3.38a24,24,0,0,0,6.56-16.44,27.65,27.65,0,0,0-.57-5,30.63,30.63,0,0,0,7.8-9.2A53.84,53.84,0,0,0,160.6,92.2ZM151,117.47a26.1,26.1,0,0,1-5.4,6.81c-2.4-7-7-13.68-12.51-17.57s-11.52-4.93-17.4-3a17.46,17.46,0,0,0-12,18.94C105,131.14,112.49,137,122.09,137h.18a40.67,40.67,0,0,0,20.82-5.8,22,22,0,0,1,.19,2.51,20,20,0,0,1-5.35,13.48c-1.64,1.63-3.27,2.37-4.85,2.22s-2.56-1-4.07-2.57a18.21,18.21,0,0,0-2.9-2.53c-2.58-1.7-4.45-1.34-5.57-.74-3.16,1.7-3.53,7.08-3.53,11,0,7.68-1.48,8.68-1.47,8.69a3.32,3.32,0,0,1-1.62-1.1,2,2,0,0,0-3.27.22c-.36.56-1.35,1.58-2,1.61-.48,0-1-.61-1.31-1a2,2,0,0,0-1.62-.81h0a2,2,0,0,0-1.61.79,5.64,5.64,0,0,1-2.55,2,.79.79,0,0,1-.14-.15c-.11-.15-.28-.36-.48-.61v0a3,3,0,0,0-2.33-1.83,38.2,38.2,0,0,0-1.34,0,3,3,0,0,0-2.33,1.83v0c-.21.24-.37.46-.48.61a.79.79,0,0,1-.14.15,5.63,5.63,0,0,1-2.55-2,2.1,2.1,0,0,0-1.63-.8,2,2,0,0,0-1.62.82c-.28.37-.81,1-1.29,1h0c-.65,0-1.6-1-2-1.61a2,2,0,0,0-3.27-.22,3.73,3.73,0,0,1-1.58,1.11h0s-1.5-1-1.5-8.69c0-3.9-.37-9.27-3.52-11-1.12-.6-3-1-5.57.74a18.21,18.21,0,0,0-2.9,2.53c-1.51,1.53-2.45,2.41-4.07,2.57s-3.21-.59-4.85-2.22a20,20,0,0,1-5.35-13.48,22.06,22.06,0,0,1,.19-2.51A40.68,40.68,0,0,0,73.51,137h.18c9.6,0,17.14-5.88,18.35-14.35a17.46,17.46,0,0,0-12-18.94c-5.87-2-11.89-.93-17.4,3s-10.11,10.6-12.51,17.57a26.1,26.1,0,0,1-5.4-6.81,49.77,49.77,0,0,1-5.52-25.16,55,55,0,0,1,18-39.13A59.66,59.66,0,0,1,97.81,37.43H98a59.66,59.66,0,0,1,40.51,15.75,55,55,0,0,1,18,39.13A49.76,49.76,0,0,1,151,117.47Zm-8.83,9.5a36.3,36.3,0,0,1-19.93,6h-.16c-8.8,0-13.52-5.43-14.3-10.85A13.38,13.38,0,0,1,117,107.61a14.36,14.36,0,0,1,4.56-.76,15.77,15.77,0,0,1,9.18,3.19C135.85,113.67,140.21,120.34,142.17,127Zm-88.56,0c2-6.63,6.32-13.3,11.44-16.93,4.47-3.16,9.09-4,13.74-2.43A13.38,13.38,0,0,1,88,122.09c-.78,5.42-5.5,10.85-14.3,10.85h-.16A36.3,36.3,0,0,1,53.61,127Z"/><path class="cls-1" d="M38.19,52.85a.67.67,0,0,0,.6.15,1.25,1.25,0,0,0,.7-.41l2.29-2.46A4.75,4.75,0,0,0,43.22,47a4.25,4.25,0,0,0-1.64-3.18l-3.86-3.6a4.25,4.25,0,0,0-3.29-1.4,4.75,4.75,0,0,0-3,1.65L29.15,43a1.24,1.24,0,0,0-.36.73.67.67,0,0,0,.19.59ZM33.05,42q1.36-1.46,3,.06l3.86,3.6q1.63,1.52.27,3l-1.34,1.44-7.12-6.63Z"/><path class="cls-1" d="M46.79,44.17a.65.65,0,0,0,.65.21,1.88,1.88,0,0,0,1.33-1.12.65.65,0,0,0-.09-.68L40.55,33a.62.62,0,0,0-.65-.21,2.07,2.07,0,0,0-1.33,1.13.62.62,0,0,0,.1.68Z"/><path class="cls-1" d="M51.28,40.3a.65.65,0,0,0,.62.29,1.88,1.88,0,0,0,1.46-.94.65.65,0,0,0,0-.69l-4.57-7.13,4.09,2.34a.87.87,0,0,0,1,0,.88.88,0,0,0,.43-.87L54,28.7l4.48,7a.65.65,0,0,0,.62.29,1.88,1.88,0,0,0,1.46-.94.65.65,0,0,0,0-.69L54,24.2a1.2,1.2,0,0,0-.81-.61,1.29,1.29,0,0,0-.91.22,2,2,0,0,0-.78.8A3,3,0,0,0,51.39,26l.37,4.91-4.3-2.39A3.12,3.12,0,0,0,46.18,28a2,2,0,0,0-1,.37,1.29,1.29,0,0,0-.58.74,1.2,1.2,0,0,0,.22,1Z"/><path class="cls-1" d="M63.71,33a.65.65,0,0,0,.57.37,1.88,1.88,0,0,0,1.57-.73.65.65,0,0,0,.09-.68L60.62,20.52a.62.62,0,0,0-.57-.37,2.07,2.07,0,0,0-1.58.74.62.62,0,0,0-.08.68Z"/><path class="cls-1" d="M64.83,19.83a.65.65,0,0,0,.64.12l2.64-.89,3.55,10.55a.65.65,0,0,0,.53.44,1.69,1.69,0,0,0,.9-.08,1.7,1.7,0,0,0,.75-.48.65.65,0,0,0,.16-.67L70.45,18.28l2.63-.88a.64.64,0,0,0,.43-.49,1.43,1.43,0,0,0-.05-.81,1.45,1.45,0,0,0-.43-.66.64.64,0,0,0-.65-.13l-7.61,2.56a.64.64,0,0,0-.44.5,1.45,1.45,0,0,0,.05.79A1.42,1.42,0,0,0,64.83,19.83Z"/><path class="cls-1" d="M79.79,27.12a.65.65,0,0,0,.46.51,1.7,1.7,0,0,0,.89.06,1.68,1.68,0,0,0,.82-.36.65.65,0,0,0,.25-.63l-.88-5,1.57-.28,3.58,4.79a.94.94,0,0,0,.94.44,1.6,1.6,0,0,0,1-.59,1.18,1.18,0,0,0,.33-1,.48.48,0,0,0-.15-.29l-3.27-4.19A3.34,3.34,0,0,0,86.87,19a4.38,4.38,0,0,0,.22-2.63q-.7-4-5.13-3.2l-3.7.65a.77.77,0,0,0-.52.33.75.75,0,0,0-.13.57Zm2.55-11.76A1.81,1.81,0,0,1,84.7,17a1.8,1.8,0,0,1-1.64,2.37L81,19.78l-.72-4.06Z"/><path class="cls-1" d="M92.1,26a1.88,1.88,0,0,0,1.73-.1.65.65,0,0,0,.34-.6l-.75-12.55a.62.62,0,0,0-.39-.56,2.07,2.07,0,0,0-1.74.1.62.62,0,0,0-.33.6l.75,12.55A.65.65,0,0,0,92.1,26Z"/><path class="cls-1" d="M98.29,25.34a6,6,0,0,0,3.05.9,4.82,4.82,0,0,0,3.32-.92,3.83,3.83,0,0,0,1.39-3,4.42,4.42,0,0,0-.35-2.08,3.59,3.59,0,0,0-1.06-1.4,12.47,12.47,0,0,0-1.42-.93q-.77-.43-1.43-.73a3.56,3.56,0,0,1-1.09-.73,1.28,1.28,0,0,1-.41-1,1.27,1.27,0,0,1,.61-1.06,2.72,2.72,0,0,1,1.6-.32,3.83,3.83,0,0,1,1.67.45,3.52,3.52,0,0,0,.91.41.81.81,0,0,0,.74-.42,1.78,1.78,0,0,0,.31-.88,1,1,0,0,0-.35-.81,2.44,2.44,0,0,0-1-.54,9.5,9.5,0,0,0-1.15-.28,8.34,8.34,0,0,0-1-.12A6.43,6.43,0,0,0,101,12a5.09,5.09,0,0,0-1.49.58,3.15,3.15,0,0,0-1.15,1.18,4.31,4.31,0,0,0-.25,3.48,3.13,3.13,0,0,0,.82,1.2,7.59,7.59,0,0,0,1.16.84q.64.38,1.27.69t1.16.64a2.66,2.66,0,0,1,.83.8,1.71,1.71,0,0,1,.28,1,1.44,1.44,0,0,1-.67,1.23,2.58,2.58,0,0,1-1.54.35,3,3,0,0,1-1.2-.3,2.77,2.77,0,0,1-.82-.57,6.69,6.69,0,0,0-.58-.56,1,1,0,0,0-.55-.27.94.94,0,0,0-.77.42,1.53,1.53,0,0,0-.38.88Q97,24.52,98.29,25.34Z"/><path class="cls-1" d="M114.64,27.8l3.89,1a3.85,3.85,0,0,0,2.93-.23,4.15,4.15,0,0,0,1.8-2.75l.11-.39a3.58,3.58,0,0,0,.06-2.12,3.15,3.15,0,0,0-1.13-1.43q1.74-.27,2.35-2.55.88-3.29-2.8-4.28l-3.54-.95a1.35,1.35,0,0,0-.79,0,.66.66,0,0,0-.46.48L113.8,26.77a.67.67,0,0,0,.15.6A1.25,1.25,0,0,0,114.64,27.8ZM119,16.62l2,.55a1.47,1.47,0,0,1,1,.71,1.67,1.67,0,0,1,.09,1.25,1.79,1.79,0,0,1-.69,1.08,1.42,1.42,0,0,1-1.21.14l-2.05-.55Zm-1.36,5.08,2.07.56a1.82,1.82,0,0,1,1.2.82,2.21,2.21,0,0,1,0,1.63l-.08.3q-.54,2-2.32,1.56L116.53,26Z"/><path class="cls-1" d="M125.92,31.27a1.69,1.69,0,0,0,.88.16.65.65,0,0,0,.56-.38l2-4.62,1.46.64.31,6a.94.94,0,0,0,.54.89,1.6,1.6,0,0,0,1.12,0,1.18,1.18,0,0,0,.82-.62.48.48,0,0,0,0-.32l-.37-5.3a3.33,3.33,0,0,0,2.19-.47,4.38,4.38,0,0,0,1.65-2.06q1.63-3.7-2.48-5.51l-3.44-1.52a.77.77,0,0,0-.61,0,.75.75,0,0,0-.43.4L125.12,30a.65.65,0,0,0,.1.68A1.7,1.7,0,0,0,125.92,31.27Zm6-10.41,1.91.84a1.81,1.81,0,0,1,1,2.71,1.8,1.8,0,0,1-2.69,1.05l-1.91-.84Z"/><path class="cls-1" d="M136.9,35.56a5.47,5.47,0,0,0,5.45,3.51,4.25,4.25,0,0,0,2.84-2.17l2.92-4.54a4.25,4.25,0,0,0,.8-3.49,5.46,5.46,0,0,0-5.45-3.51,4.27,4.27,0,0,0-2.83,2.18l-2.92,4.54A4.27,4.27,0,0,0,136.9,35.56Zm2.88-2.15,2.92-4.54q1.2-1.87,2.86-.8T146,31l-2.92,4.54q-1.2,1.87-2.88.79T139.79,33.41Z"/><path class="cls-1" d="M145.13,40.74a.93.93,0,0,0-.11,1,2.36,2.36,0,0,0,.67,1q.59.53,1,.25L149,41.54l3,2.71-1.17,2.4q-.24.46.29.93a2,2,0,0,0,1,.46.88.88,0,0,0,.87-.21l.1-.17,5.36-11.51a1,1,0,0,0,0-.85,2.31,2.31,0,0,0-.62-.85,2.45,2.45,0,0,0-.89-.53.94.94,0,0,0-.79,0L145.3,40.61Zm10.72-3.66-2.72,5.53-2.45-2.18Z"/><path class="cls-1" d="M154.41,50.61a1.25,1.25,0,0,0,.31.75l2.12,2.6a4.75,4.75,0,0,0,2.87,1.84,4.25,4.25,0,0,0,3.38-1.18l4.09-3.34A4.25,4.25,0,0,0,169,48.22,4.75,4.75,0,0,0,167.8,45l-2.12-2.6A1.25,1.25,0,0,0,165,42a.67.67,0,0,0-.61.11l-9.76,8A.67.67,0,0,0,154.41,50.61Zm10.44-5.71,1.25,1.53q1.26,1.54-.47,2.95l-4.09,3.33q-1.72,1.41-3-.14L157.31,51Z"/><path class="cls-1" d="M56.59,166.18a3.53,3.53,0,0,0-1.54-2L53,162.74a.92.92,0,0,0-.57-.19.5.5,0,0,0-.41.2l-5.32,7.7a.5.5,0,0,0,0,.46.92.92,0,0,0,.38.47l2.06,1.42a3.53,3.53,0,0,0,2.43.72A3.16,3.16,0,0,0,53.68,172l2.23-3.23A3.16,3.16,0,0,0,56.59,166.18Zm-2.19,1.53-2.23,3.23q-.94,1.36-2.16.52l-1.21-.83,4.11-6,1.21.83Q55.34,166.35,54.4,167.71Z"/><path class="cls-1" d="M61.12,168.1a1.54,1.54,0,0,0-1.13-.64.46.46,0,0,0-.45.24l-4.62,8.13a.48.48,0,0,0,0,.51,1.4,1.4,0,0,0,1.12.64.48.48,0,0,0,.45-.24l4.62-8.13A.46.46,0,0,0,61.12,168.1Z"/><path class="cls-1" d="M68.32,172.32a3.79,3.79,0,0,0-1.9-1.7,3.4,3.4,0,0,0-2.47-.26,3.18,3.18,0,0,0-1.86,1.89l-1.68,3.64a3.18,3.18,0,0,0-.23,2.65,4.07,4.07,0,0,0,4.38,2,3.16,3.16,0,0,0,1.87-1.9l.71-1.56a.63.63,0,0,0,0-.45.53.53,0,0,0-.31-.34l-2.18-1a.47.47,0,0,0-.46,0,.87.87,0,0,0-.35.4.89.89,0,0,0-.08.53.48.48,0,0,0,.29.37l1,.48-.35.77a1.76,1.76,0,0,1-.87,1,1.42,1.42,0,0,1-1.17-.08q-1.33-.61-.64-2.12L63.76,173q.69-1.5,2-.88a1.35,1.35,0,0,1,.85.83,1.82,1.82,0,0,1-.11,1.08q-.23.54.59.92a1.06,1.06,0,0,0,.71.12q.28-.08.49-.55A2.44,2.44,0,0,0,68.32,172.32Z"/><path class="cls-1" d="M72.45,173.09a1.35,1.35,0,0,0-.66-.08.46.46,0,0,0-.4.32l-3.16,8.8a.48.48,0,0,0,.11.5,1.4,1.4,0,0,0,1.22.44.48.48,0,0,0,.4-.31l3.16-8.8a.46.46,0,0,0-.11-.5A1.36,1.36,0,0,0,72.45,173.09Z"/><path class="cls-1" d="M81.37,177.2a1.16,1.16,0,0,0,.31-1.11.48.48,0,0,0-.35-.35l-5.76-1.55a.47.47,0,0,0-.48.13,1.07,1.07,0,0,0-.29.51,1.05,1.05,0,0,0,0,.61.48.48,0,0,0,.35.34l2,.54-2.15,8a.49.49,0,0,0,.15.49,1.39,1.39,0,0,0,1.25.34.48.48,0,0,0,.38-.35l2.15-8,2,.54A.48.48,0,0,0,81.37,177.2Z"/><path class="cls-1" d="M86.81,177.28a.74.74,0,0,0-.34-.53,1.71,1.71,0,0,0-.73-.29,1.82,1.82,0,0,0-.77,0,.7.7,0,0,0-.48.35l-4.15,8.49a1,1,0,0,0-.05.15.69.69,0,0,0,.32.65,1.76,1.76,0,0,0,.83.38q.58.09.75-.26l.83-1.8,3,.49.22,2q0,.39.55.47a1.49,1.49,0,0,0,.8-.1.65.65,0,0,0,.46-.48.87.87,0,0,0,0-.15Zm-3.16,5.78,1.91-4.16.5,4.56Z"/><path class="cls-1" d="M96.25,186.49l-3.44-.2.47-8.28a.46.46,0,0,0-.24-.45,1.54,1.54,0,0,0-1.3-.07.46.46,0,0,0-.29.42l-.53,9.33a.49.49,0,0,0,.22.44,1,1,0,0,0,.55.19l4.47.25a.45.45,0,0,0,.42-.22,1.19,1.19,0,0,0,.07-1.15A.45.45,0,0,0,96.25,186.49Z"/><path class="cls-1" d="M109.63,180.2a3.16,3.16,0,0,0-1.14-2.4,3.53,3.53,0,0,0-2.48-.56l-2.49.24a.93.93,0,0,0-.56.23.5.5,0,0,0-.19.42l.89,9.32a.5.5,0,0,0,.26.38.92.92,0,0,0,.59.12l2.49-.24a3.53,3.53,0,0,0,2.33-1,3.16,3.16,0,0,0,.66-2.58Zm-2.77,5.87-1.46.14-.69-7.2,1.46-.14q1.47-.14,1.63,1.51l.37,3.91Q108.34,185.93,106.86,186.07Z"/><path class="cls-1" d="M119.53,184.21a.48.48,0,0,0-.46-.15l-3.91.82-.59-2.83,2.1-.44a.48.48,0,0,0,.38-.31.88.88,0,0,0,0-.52.9.9,0,0,0-.26-.48.49.49,0,0,0-.46-.13l-2.1.44-.59-2.82,3.91-.82a.48.48,0,0,0,.36-.33,1.08,1.08,0,0,0,0-.61,1.06,1.06,0,0,0-.26-.52.48.48,0,0,0-.47-.15l-4.92,1a1,1,0,0,0-.52.27.49.49,0,0,0-.15.47l1.91,9.14a.49.49,0,0,0,.32.37,1,1,0,0,0,.58,0l4.92-1a.47.47,0,0,0,.37-.33,1.06,1.06,0,0,0,0-.58A1.08,1.08,0,0,0,119.53,184.21Z"/><path class="cls-1" d="M126.86,178.74a2.68,2.68,0,0,0-1.11-.69,9.29,9.29,0,0,0-1.23-.28q-.65-.1-1.18-.13a2.65,2.65,0,0,1-1-.22,1,1,0,0,1-.55-.59.94.94,0,0,1,.15-.9,2,2,0,0,1,1-.64,2.85,2.85,0,0,1,1.28-.13,2.6,2.6,0,0,0,.74,0,.6.6,0,0,0,.41-.49,1.32,1.32,0,0,0,0-.69.76.76,0,0,0-.46-.47,1.81,1.81,0,0,0-.82-.12,7,7,0,0,0-.88.1,6.31,6.31,0,0,0-.75.19,4.78,4.78,0,0,0-1.12.52,3.77,3.77,0,0,0-.89.79,2.34,2.34,0,0,0-.49,1.12,3.2,3.2,0,0,0,.74,2.49,2.33,2.33,0,0,0,.88.62,5.6,5.6,0,0,0,1,.28q.54.1,1.06.15t1,.14a2,2,0,0,1,.79.33,1.27,1.27,0,0,1,.47.66,1.07,1.07,0,0,1-.14,1,1.92,1.92,0,0,1-1,.65,2.22,2.22,0,0,1-.91.11,2.06,2.06,0,0,1-.72-.18,4.93,4.93,0,0,0-.55-.24.71.71,0,0,0-.45,0,.69.69,0,0,0-.43.49,1.13,1.13,0,0,0,0,.71q.2.63,1.29.87a4.48,4.48,0,0,0,2.36-.17,3.58,3.58,0,0,0,2.07-1.51,2.85,2.85,0,0,0,.18-2.45A3.29,3.29,0,0,0,126.86,178.74Z"/><path class="cls-1" d="M129.13,171.92a.46.46,0,0,0-.41-.3,1.54,1.54,0,0,0-1.2.5.46.46,0,0,0-.08.5l3.59,8.63a.48.48,0,0,0,.41.3,1.4,1.4,0,0,0,1.19-.5.48.48,0,0,0,.09-.5Z"/><path class="cls-1" d="M139.54,172.39a.63.63,0,0,0-.33-.3.53.53,0,0,0-.46,0l-2.13,1.11a.48.48,0,0,0-.26.39.87.87,0,0,0,.1.52.89.89,0,0,0,.37.39.48.48,0,0,0,.47,0l1-.53.39.75a1.76,1.76,0,0,1,.23,1.28,1.42,1.42,0,0,1-.78.88q-1.3.68-2.07-.79l-1.85-3.56q-.76-1.47.55-2.15a1.34,1.34,0,0,1,1.17-.16,1.82,1.82,0,0,1,.79.75q.28.52,1.09.1a1.06,1.06,0,0,0,.53-.49.9.9,0,0,0-.13-.73,2.44,2.44,0,0,0-1.76-1.35,3.79,3.79,0,0,0-2.5.46,3.4,3.4,0,0,0-1.72,1.79,3.18,3.18,0,0,0,.36,2.63l1.85,3.56a3.17,3.17,0,0,0,2,1.81,4.06,4.06,0,0,0,4.27-2.22,3.16,3.16,0,0,0-.35-2.64Z"/><path class="cls-1" d="M144.75,163a.46.46,0,0,0-.46-.21,1.54,1.54,0,0,0-1.07.73.46.46,0,0,0,0,.51l3.25,4.78-5.27-2.9a2.32,2.32,0,0,0-.94-.33,1.35,1.35,0,0,0-.75.28,1.31,1.31,0,0,0-.45.49.48.48,0,0,0,0,.51l5.25,7.72a.48.48,0,0,0,.46.21,1.39,1.39,0,0,0,1.07-.73.48.48,0,0,0,0-.51l-3.25-4.78,5.76,3.08a1.1,1.1,0,0,0,1.21-.11,1.26,1.26,0,0,0,.44-.49.48.48,0,0,0,0-.51Z"/><path class="cls-1" d="M107.3,62.76a2,2,0,0,0-2.89,2.89l10,10-10,10a2,2,0,1,0,2.89,2.89l11.47-11.47a2,2,0,0,0,0-2.89Z"/><path class="cls-1" d="M91.13,62.76a2,2,0,0,0-2.89,0L76.77,74.23a2,2,0,0,0,0,2.89L88.24,88.59a2,2,0,0,0,2.89-2.89l-10-10,10-10A2,2,0,0,0,91.13,62.76Z"/></g></svg>