<?xml version="1.0" encoding="utf-8"?>
<!-- Generator: Adobe Illustrator 18.1.1, SVG Export Plug-In . SVG Version: 6.00 Build 0)  -->
<svg version="1.1" xmlns="http://www.w3.org/2000/svg" xmlns:xlink="http://www.w3.org/1999/xlink" x="0px" y="0px"
	 viewBox="0 0 567 567" enable-background="new 0 0 567 567" xml:space="preserve">
<g id="Layer_1">
	<g>
		<g>
			<path d="M174.3,97.1l-5.8-13.5c-1.6-3.8-1.8-7-0.6-9.7s3.5-4.7,6.8-6.1c3.4-1.4,6.4-1.8,9.3-1c2.8,0.8,4.8,2.6,6.1,5.4
				c0.5,1.2,0.6,2.1,0.3,2.7c-0.3,0.6-1,1.2-2.1,1.6c-2,0.9-3.3,0.6-3.9-0.7c-0.7-1.4-1.6-2.4-2.7-2.9c-1.1-0.6-2.5-0.5-4.3,0.3
				c-3.3,1.4-4.2,4-2.6,7.7l5.8,13.5c1.6,3.7,4,4.9,7.3,3.4c1.6-0.7,2.6-1.7,3.1-3c0.5-1.3,0.3-2.9-0.5-4.7l-1.2-2.9l-3.8,1.6
				c-0.6,0.3-1.2,0.2-1.7-0.1c-0.5-0.3-1-0.9-1.2-1.5c-0.3-0.6-0.3-1.3-0.2-1.9c0.1-0.6,0.5-1.1,1.1-1.3l8.1-3.5
				c0.6-0.3,1.2-0.3,1.7,0c0.5,0.3,0.9,0.7,1.1,1.2l2.5,5.8c1.6,3.8,1.8,7.1,0.6,9.7c-1.3,2.6-3.6,4.7-7,6.1
				c-3.4,1.5-6.5,1.7-9.2,0.8C178.1,103.3,175.9,100.9,174.3,97.1z"/>
			<path d="M208.2,93.7l-8.4-33.1c-0.1-0.5-0.1-1.1,0.2-1.6s0.7-0.8,1.3-1l9.9-2.5c7.9-2,12.8,0.5,14.6,7.6c0.7,2.8,0.7,5.2-0.1,7.2
				c-0.8,2-2,3.6-3.9,4.7l9.7,10.7c0.2,0.2,0.4,0.4,0.5,0.8c0.2,0.9,0,1.8-0.7,2.7c-0.7,1-1.5,1.5-2.5,1.8c-1,0.2-1.9-0.1-2.7-1
				l-10.7-12.3l-4.2,1.1l3.4,13.3c0.2,0.6,0,1.2-0.6,1.8c-0.5,0.5-1.3,0.9-2.2,1.1c-0.9,0.2-1.7,0.2-2.4,0
				C208.9,94.8,208.4,94.3,208.2,93.7z M210,73.5l5.5-1.4c3.6-0.9,4.9-3.2,4-6.8c-0.9-3.6-3.2-5-6.7-4.1l-5.5,1.4L210,73.5z"/>
			<path d="M236.4,85.8c0-0.1,0-0.3,0.1-0.6l6.8-33.9c0.1-0.7,0.6-1.2,1.4-1.7c0.8-0.4,1.7-0.7,2.7-0.8c1-0.1,2,0,2.8,0.3
				c0.9,0.3,1.4,0.8,1.7,1.6l13,32c0.1,0.3,0.1,0.4,0.2,0.5c0.1,0.8-0.3,1.5-1.2,2.1c-0.9,0.6-1.8,1-2.7,1.1
				c-1.3,0.1-2.1-0.3-2.4-1.2l-2.6-6.8l-11,1l-1.3,7.2c-0.2,0.9-1,1.5-2.4,1.6c-1.1,0.1-2.2-0.1-3.3-0.6
				C237.1,87.3,236.5,86.7,236.4,85.8z M246.1,74.1l8.9-0.8l-6-15.7L246.1,74.1z"/>
			<path d="M272.6,84l2.1-34.1c0-0.6,0.3-1,0.8-1.4s1.1-0.6,1.9-0.5l10.4,0.6c3.5,0.2,6.3,1.3,8.3,3.4c2,2,2.9,5.1,2.6,9.2l0,0.3
				c-0.3,4.1-1.5,7-3.9,8.8c-2.3,1.8-5.3,2.6-9,2.4l-5.8-0.4l-0.7,12.2c0,0.7-0.4,1.2-1.1,1.5c-0.7,0.3-1.5,0.5-2.4,0.4
				c-0.9-0.1-1.7-0.3-2.3-0.7C272.8,85.3,272.5,84.7,272.6,84z M280.3,66.9l5.8,0.4c1.7,0.1,3.1-0.3,4.1-1.3c1-1,1.6-2.4,1.7-4.4
				l0-0.6c0.1-2-0.3-3.5-1.1-4.6s-2.2-1.7-3.9-1.8l-5.8-0.4L280.3,66.9z"/>
			<path d="M304.3,86.6l7.4-33.4c0.2-0.7,0.6-1.1,1.3-1.3c0.7-0.2,1.5-0.2,2.4,0c0.9,0.2,1.6,0.5,2.2,1c0.6,0.5,0.8,1.1,0.6,1.8
				l-3,13.4l11.3,2.5l3-13.4c0.2-0.7,0.6-1.1,1.3-1.3c0.7-0.2,1.5-0.2,2.4,0c0.9,0.2,1.6,0.5,2.2,1c0.6,0.5,0.8,1.1,0.6,1.8
				l-7.4,33.4c-0.1,0.7-0.6,1.1-1.3,1.3c-0.7,0.2-1.5,0.2-2.4,0.1c-0.9-0.2-1.6-0.6-2.2-1.1c-0.6-0.5-0.8-1.1-0.6-1.8l3.3-14.7
				l-11.3-2.5l-3.3,14.7c-0.1,0.7-0.6,1.1-1.3,1.3c-0.7,0.2-1.5,0.2-2.4,0.1c-0.9-0.2-1.6-0.6-2.2-1.1
				C304.3,87.9,304.1,87.3,304.3,86.6z"/>
			<path d="M337.7,95.2l11.4-32.3c0.2-0.7,0.7-1,1.4-1.2c0.7-0.1,1.5,0,2.4,0.3c0.9,0.3,1.6,0.7,2.1,1.3c0.5,0.5,0.6,1.2,0.4,1.8
				L344,97.4c-0.2,0.6-0.7,1-1.5,1.2c-0.8,0.1-1.6,0.1-2.4-0.2c-0.9-0.3-1.6-0.8-2-1.3C337.6,96.4,337.5,95.8,337.7,95.2z"/>
			<path d="M356.9,91.8l6.5-13.2c1.8-3.7,4.2-5.9,7-6.7c2.8-0.8,5.8-0.4,9,1.2c3.2,1.6,5.5,3.7,6.7,6.4s1.2,5.3-0.1,8
				c-0.6,1.2-1.2,1.8-1.9,2c-0.7,0.2-1.5,0-2.6-0.5c-2-1-2.7-2.1-2-3.4c0.2-0.4,0.3-0.8,0.4-1.1c0.1-0.3,0.2-0.8,0.2-1.4
				c0-0.6,0-1.1-0.2-1.6c-0.1-0.5-0.5-1-1-1.5c-0.5-0.5-1.2-1-2-1.4c-3.2-1.6-5.8-0.6-7.5,3l-6.5,13.2c-1.8,3.6-1,6.2,2.3,7.9
				c1,0.5,1.9,0.7,2.7,0.8c0.8,0,1.5-0.2,2.1-0.6c0.6-0.4,1-0.9,1.4-1.3c0.3-0.4,0.7-0.9,1-1.6c0.7-1.2,2-1.4,3.9-0.5
				c1.1,0.5,1.8,1.1,2,1.8c0.3,0.7,0.1,1.6-0.5,2.7c-1.4,2.8-3.5,4.6-6.4,5.3c-2.9,0.7-6,0.2-9.2-1.4c-3.2-1.6-5.3-3.7-6.4-6.4
				C354.7,98.8,355.1,95.5,356.9,91.8z"/>
			<path d="M392.7,122.7L414,95.8c0.3-0.4,0.9-0.7,1.6-0.6c0.7,0,1.4,0.3,2.1,0.8l7.2,5.7c2.9,2.3,4.6,4.9,5.1,7.7
				c0.5,2.9-0.5,6-3.1,9.2l-8.9,11.3c-2.6,3.3-5.3,5-8.3,5.1c-2.9,0.2-5.8-0.9-8.7-3.2l-7.2-5.7c-0.7-0.5-1.1-1.1-1.3-1.8
				C392.3,123.7,392.4,123.1,392.7,122.7z M400.4,123.8l4.2,3.3c2.8,2.2,5.5,1.8,8-1.4l8.9-11.3c2.5-3.2,2.3-5.9-0.5-8.1l-4.2-3.3
				L400.4,123.8z"/>
			<path d="M418.2,143.7l25-23.3c0.5-0.5,1.1-0.6,1.8-0.4c0.7,0.2,1.3,0.5,1.8,1.1l12.5,13.4c0.5,0.5,0.6,1.1,0.4,1.8
				c-0.2,0.7-0.6,1.3-1.1,1.8c-0.6,0.6-1.3,0.9-2,1.1s-1.3,0-1.7-0.5l-10-10.7l-7.7,7.2l5.4,5.7c0.4,0.5,0.6,1,0.5,1.7
				c-0.1,0.6-0.5,1.2-1,1.7c-0.5,0.5-1.1,0.7-1.7,0.8c-0.6,0.1-1.2-0.1-1.7-0.6l-5.4-5.7l-7.7,7.2l10,10.7c0.4,0.5,0.6,1.1,0.4,1.7
				c-0.2,0.7-0.6,1.3-1.2,1.9c-0.6,0.5-1.2,0.9-1.9,1c-0.7,0.1-1.3,0-1.7-0.5l-12.5-13.4c-0.5-0.6-0.9-1.2-1-1.9
				C417.5,144.8,417.7,144.2,418.2,143.7z"/>
			<path d="M440.6,162.7c0.7-0.5,1.5-0.7,2.5-0.7c1,0,1.7,0.3,2.2,1c0.3,0.4,0.4,0.9,0.3,1.6c0,0.7-0.1,1.4-0.2,2.2
				c-0.1,0.7-0.1,1.6,0.1,2.7c0.2,1.1,0.7,2.1,1.3,3.1c0.9,1.4,2,2.3,3.3,2.7c1.3,0.5,2.5,0.3,3.8-0.6c0.9-0.6,1.5-1.4,1.8-2.3
				c0.3-1,0.4-2,0.3-3.1c-0.1-1.1-0.3-2.3-0.5-3.6c-0.2-1.3-0.5-2.5-0.6-3.9c-0.2-1.3-0.2-2.6-0.1-3.9c0.1-1.3,0.5-2.5,1.2-3.8
				c0.7-1.2,1.8-2.3,3.2-3.3c1.5-1.1,3.1-1.7,4.7-1.9c1.6-0.2,3.1,0,4.5,0.5c1.4,0.6,2.6,1.3,3.7,2.3c1.1,0.9,2.1,2.1,3,3.4
				c0.5,0.7,1,1.5,1.5,2.4c0.5,0.9,0.9,1.9,1.3,3c0.4,1.1,0.5,2.1,0.4,3c-0.1,0.9-0.5,1.6-1.2,2.1c-0.6,0.4-1.4,0.7-2.4,0.8
				c-1,0.1-1.7-0.2-2.1-0.9c-0.2-0.3-0.4-1.1-0.6-2.6c-0.2-1.5-0.8-3-1.8-4.3c-1.1-1.5-2.2-2.5-3.3-2.9c-1.2-0.4-2.3-0.3-3.3,0.4
				c-0.8,0.6-1.3,1.4-1.5,2.5c-0.1,1.1-0.1,2.3,0.2,3.6c0.3,1.3,0.6,2.7,0.8,4.3c0.2,1.6,0.3,3.1,0.3,4.6c0,1.5-0.4,3-1.3,4.6
				c-0.8,1.6-2.1,3-3.9,4.2c-3,2.1-5.9,2.7-8.8,2c-2.9-0.7-5.4-2.6-7.5-5.6c-1.9-2.7-2.9-5.4-3.1-8.1
				C438.8,165.5,439.3,163.6,440.6,162.7z"/>
			<path d="M455,191.9l30.1-16.2c0.6-0.3,1.2-0.3,1.9,0.1s1.2,1,1.6,1.8s0.7,1.6,0.7,2.3c0,0.7-0.3,1.3-0.9,1.6l-30.1,16.2
				c-0.6,0.3-1.2,0.3-1.9-0.1c-0.7-0.4-1.2-1-1.6-1.8c-0.4-0.8-0.6-1.6-0.6-2.4S454.4,192.2,455,191.9z"/>
			<path d="M471.4,202.3l13.6-5.4c3.8-1.5,7.1-1.6,9.7-0.3c2.6,1.3,4.6,3.6,5.9,6.9c1.3,3.4,1.6,6.5,0.7,9.3
				c-0.8,2.8-2.7,4.8-5.6,5.9c-1.2,0.5-2.1,0.5-2.7,0.2c-0.6-0.3-1.1-1-1.6-2.1c-0.8-2-0.6-3.4,0.8-3.9c1.4-0.7,2.4-1.5,3-2.6
				c0.6-1.1,0.6-2.5-0.2-4.3c-1.3-3.4-3.9-4.3-7.6-2.8l-13.6,5.4c-3.8,1.5-5,3.9-3.6,7.2c0.6,1.6,1.6,2.7,2.9,3.2
				c1.3,0.5,2.9,0.4,4.7-0.4l2.9-1.1l-1.5-3.9c-0.2-0.6-0.2-1.2,0.2-1.7c0.4-0.5,0.9-0.9,1.6-1.2c0.7-0.3,1.3-0.3,1.9-0.2
				c0.6,0.2,1.1,0.5,1.3,1.1l3.2,8.2c0.2,0.6,0.2,1.2,0,1.7c-0.3,0.5-0.7,0.9-1.2,1.1l-5.8,2.3c-3.9,1.5-7.1,1.6-9.7,0.3
				c-2.6-1.3-4.6-3.7-6-7.1c-1.4-3.4-1.5-6.5-0.6-9.2C465.1,205.9,467.5,203.8,471.4,202.3z"/>
			<path d="M473.9,236.3l33.3-7.4c0.7-0.2,1.3,0.1,1.8,0.6c0.5,0.6,0.9,1.3,1.1,2.2c0.3,1.2,0.2,2.2-0.1,2.9
				c-0.3,0.7-1.1,1.7-2.4,2.8l-17,14l20.7-4.6c0.7-0.2,1.3,0.1,1.8,0.6s0.8,1.3,1,2.2c0.2,0.9,0.2,1.7,0,2.4
				c-0.2,0.7-0.6,1.1-1.3,1.3l-33.4,7.4c-0.7,0.1-1.2-0.1-1.8-0.6c-0.5-0.6-0.9-1.3-1.1-2.2c-0.4-1.8,0-3.2,1.3-4.2l18.3-15.4
				l-20.7,4.6c-0.7,0.1-1.2-0.1-1.8-0.6c-0.5-0.6-0.9-1.3-1.1-2.2c-0.2-0.9-0.2-1.7,0.1-2.4C472.8,236.9,473.2,236.4,473.9,236.3z"
				/>
		</g>
		<g>
			<path d="M413.8,496.8c-1.3,0-2.5-0.5-3.5-1.5l-25-25c-1.9-1.9-1.9-5.1,0-7l47.1-47.1c0.9-0.9,2.2-1.5,3.5-1.5s2.6,0.5,3.5,1.5
				l25,25c0.9,0.9,1.5,2.2,1.5,3.5s-0.5,2.6-1.5,3.5l-47.1,47.1C416.4,496.3,415.1,496.8,413.8,496.8z M395.8,466.8l18,18l40.1-40.1
				l-18-18L395.8,466.8z"/>
		</g>
		<g>
			<path d="M367.4,411.7c-5.5,0-10.7-2.1-14.5-6s-6-9.1-6-14.5s2.1-10.7,6-14.5s9-6,14.5-6s10.7,2.1,14.5,6c8,8,8,21.1,0,29.1
				C378,409.6,372.9,411.7,367.4,411.7z M367.4,380.5c-2.8,0-5.5,1.1-7.5,3.1c-2,2-3.1,4.7-3.1,7.5c0,2.8,1.1,5.5,3.1,7.5
				c2,2,4.7,3.1,7.5,3.1c2.8,0,5.5-1.1,7.5-3.1c4.2-4.2,4.2-10.9,0-15.1C372.9,381.6,370.2,380.5,367.4,380.5z"/>
		</g>
		<g>
			<path d="M435.8,294.1c-4.4,0-8.5-1.7-11.6-4.8c-6.4-6.4-6.4-16.8,0-23.1c3.1-3.1,7.2-4.8,11.6-4.8c4.4,0,8.5,1.7,11.6,4.8
				c3.1,3.1,4.8,7.2,4.8,11.6s-1.7,8.5-4.8,11.6S440.1,294.1,435.8,294.1z M435.8,271.3c-1.7,0-3.3,0.7-4.6,1.9
				c-2.5,2.5-2.5,6.6,0,9.1c1.2,1.2,2.8,1.9,4.6,1.9c1.7,0,3.3-0.7,4.6-1.9c1.2-1.2,1.9-2.8,1.9-4.6c0-1.7-0.7-3.3-1.9-4.6
				C439.1,272,437.5,271.3,435.8,271.3z"/>
		</g>
		<g>
			<path d="M249.6,480.3c-4.4,0-8.5-1.7-11.6-4.8s-4.8-7.2-4.8-11.6c0-4.4,1.7-8.5,4.8-11.6c3.1-3.1,7.2-4.8,11.6-4.8
				s8.5,1.7,11.6,4.8c6.4,6.4,6.4,16.8,0,23.1C258.1,478.6,254,480.3,249.6,480.3z M249.6,457.5c-1.7,0-3.3,0.7-4.6,1.9
				c-1.2,1.2-1.9,2.8-1.9,4.6c0,1.7,0.7,3.3,1.9,4.6c1.2,1.2,2.8,1.9,4.6,1.9s3.3-0.7,4.6-1.9c2.5-2.5,2.5-6.6,0-9.1
				C252.9,458.2,251.3,457.5,249.6,457.5z"/>
		</g>
		<g>
			<path d="M293.1,351c-1.3,0-2.5-0.5-3.5-1.5l-26-26c-1.9-1.9-1.9-5.1,0-7l26-26c0.9-0.9,2.2-1.5,3.5-1.5s2.6,0.5,3.5,1.5l26,26
				c1.9,1.9,1.9,5.1,0,7l-26,26C295.6,350.5,294.3,351,293.1,351z M274.1,320l19,19l19-19l-19-19L274.1,320z"/>
		</g>
		<g>
			<path d="M306.1,312c-2.2,0-4.3-1.5-4.8-3.8c-0.7-2.7,1-5.3,3.6-6l118.3-29c2.7-0.6,5.3,1,6,3.6s-1,5.3-3.6,6l-118.3,29
				C306.8,312,306.4,312,306.1,312z"/>
		</g>
		<g>
			<path d="M251.2,456.3c-0.4,0-0.8,0-1.2-0.1c-2.7-0.7-4.3-3.3-3.6-6l29-118.3c0.7-2.7,3.3-4.3,6-3.6c2.7,0.7,4.3,3.3,3.6,6
				l-29,118.3C255.4,454.8,253.4,456.3,251.2,456.3z"/>
		</g>
		<g>
			<path d="M401.3,459.2c-1.4,0-2.7-0.6-3.7-1.6c-0.3-0.3-24.1-26-65.2-26.7c-2.5,0-4.6-1.9-4.9-4.4c-2-19-9.7-71.6-21.1-86
				c-2.5-3.1-5.5-7-1.7-10.3c3.5-3,7,0.2,8.9,1.9c1.3,1.2,3.2,3.1,5.6,5.4c3.9,4,9.3,9.5,16.1,16.5c11.4,11.9,22.9,24.1,23,24.3
				c1.9,2,1.8,5.1-0.2,7c-2,1.9-5.1,1.8-7-0.2c-8.9-9.5-18.4-19.5-26.4-27.9c7,22.8,11,52.8,12.3,63.9c42.9,2.4,67,28.7,68,29.8
				c1.8,2,1.7,5.2-0.4,7C403.7,458.8,402.5,459.2,401.3,459.2z"/>
		</g>
		<g>
			<path d="M429.6,431c-1.2,0-2.4-0.4-3.3-1.3c-1.2-1-27.5-25.1-29.8-68c-11.1-1.3-41.1-5.4-63.9-12.3c8.3,8,18.4,17.5,27.9,26.4
				c2,1.9,2.1,5,0.2,7c-1.9,2-5,2.1-7,0.2c-0.1-0.1-12.3-11.6-24.3-23c-7-6.7-12.6-12.1-16.5-16.1c-2.4-2.4-4.2-4.2-5.4-5.6
				c-1.7-1.9-5-5.4-1.9-8.9c3.3-3.8,7.2-0.8,10.3,1.7c14.4,11.4,67,19.1,86,21.1c2.5,0.3,4.4,2.3,4.4,4.9
				c0.7,41.1,26.4,64.9,26.7,65.2c2,1.8,2.2,5,0.4,7C432.3,430.4,430.9,431,429.6,431z"/>
		</g>
		<g>
			<path d="M278.4,312c-1.4,0-2.8-0.6-3.7-1.7c-1.8-2.1-1.6-5.2,0.5-7c1.8-1.5,3.2-2.8,4.4-4.1c32.8-32.8,32.8-86.2,0-118.9
				c-15.9-15.9-37-24.6-59.5-24.6s-43.6,8.7-59.5,24.6c-32.8,32.8-32.8,86.2,0,118.9c1.3,1.3,2.7,2.6,4.4,4.1c2.1,1.8,2.3,4.9,0.5,7
				c-1.8,2.1-4.9,2.3-7,0.5c-1.9-1.7-3.5-3.1-5-4.6c-36.7-36.7-36.7-96.3,0-133c17.8-17.8,41.4-27.5,66.5-27.5
				c25.1,0,48.7,9.8,66.5,27.5c36.7,36.7,36.7,96.3,0,133c-1.4,1.4-3,2.9-5,4.6C280.7,311.6,279.5,312,278.4,312z"/>
		</g>
		<g>
			<path d="M273.5,269.4c-1.3,0-2.5-0.5-3.5-1.5l-77.7-77.7c-1.9-1.9-1.9-5.1,0-7l77.7-77.7c1.9-1.9,5.1-1.9,7,0l77.7,77.7
				c0.9,0.9,1.5,2.2,1.5,3.5s-0.5,2.6-1.5,3.5L277,267.9C276,268.9,274.8,269.4,273.5,269.4z M202.8,186.7l70.7,70.7l70.7-70.7
				L273.5,116L202.8,186.7z"/>
		</g>
		<g>
			<path d="M295,248h-44c-2.8,0-5-2.2-5-5s2.2-5,5-5h44c2.8,0,5,2.2,5,5S297.8,248,295,248z"/>
		</g>
		<g>
			<path d="M306,224h-78c-2.8,0-5-2.2-5-5s2.2-5,5-5h78c2.8,0,5,2.2,5,5S308.8,224,306,224z"/>
		</g>
		<g>
			<path d="M296,200h-91c-2.8,0-5-2.2-5-5s2.2-5,5-5h91c2.8,0,5,2.2,5,5S298.8,200,296,200z"/>
		</g>
		<g>
			<path d="M278,178h-68c-2.8,0-5-2.2-5-5s2.2-5,5-5h68c2.8,0,5,2.2,5,5S280.8,178,278,178z"/>
		</g>
		<g>
			<path d="M220.1,333.8c-22.6,0-44.5-8.1-61.5-22.9c-2.1-1.8-2.3-4.9-0.5-7c1.8-2.1,4.9-2.3,7-0.5c15.2,13.2,34.8,20.5,55,20.5
				s39.8-7.3,55-20.5c2.1-1.8,5.2-1.6,7,0.5c1.8,2.1,1.6,5.2-0.5,7C264.6,325.6,242.7,333.8,220.1,333.8z"/>
		</g>
		<g>
			<path d="M465.1,407.4c-0.9,0-1.8-0.2-2.6-0.7c-2.3-1.4-3.1-4.5-1.6-6.8c21.2-34.3,32.3-73.9,32.3-114.4c0-2.7,2.2-5,5-5
				s5,2.2,5,5c0,42.4-11.7,83.7-33.8,119.6C468.4,406.5,466.8,407.4,465.1,407.4z"/>
		</g>
		<g>
			<path d="M275,513.6c-60.9,0-118.2-23.7-161.3-66.8c-43.1-43.1-66.8-100.4-66.8-161.3c0-75.9,37.6-146.6,100.6-189.2
				c2.3-1.5,5.4-0.9,6.9,1.3c1.5,2.3,0.9,5.4-1.3,6.9c-60.3,40.7-96.2,108.4-96.2,181c0,58.3,22.7,113.1,63.9,154.3
				c41.2,41.2,96,63.9,154.3,63.9c31,0,61-6.4,89-18.9c2.5-1.1,5.4,0,6.6,2.5c1.1,2.5,0,5.4-2.5,6.6
				C338.7,506.9,307.4,513.6,275,513.6z"/>
		</g>
	</g>
</g>
<g id="Layer_2">
</g>
</svg>
