<?xml version="1.0" encoding="utf-8"?>
<!-- Generator: Adobe Illustrator 18.1.1, SVG Export Plug-In . SVG Version: 6.00 Build 0)  -->
<svg version="1.1" xmlns="http://www.w3.org/2000/svg" xmlns:xlink="http://www.w3.org/1999/xlink" x="0px" y="0px"
	 viewBox="0 0 567 567" enable-background="new 0 0 567 567" xml:space="preserve">
<g id="Layer_1">
	<g>
		<g>
			<g>
				<path d="M506.2,441H148.8c-13.6,0-24.7-11.1-24.7-24.7V189.4c0-13.6,11.1-24.7,24.7-24.7h357.4c13.6,0,24.7,11.1,24.7,24.7v59.8
					h-9.9v-59.8c0-8.1-6.6-14.7-14.7-14.7H148.8c-8.1,0-14.7,6.6-14.7,14.7v226.9c0,8.1,6.6,14.7,14.7,14.7h357.4
					c8.1,0,14.7-6.6,14.7-14.7v-54.3h9.9v54.3C530.9,429.9,519.8,441,506.2,441z"/>
			</g>
			<g>
				<rect x="132" y="209" width="394" height="10"/>
			</g>
			<g>
				<path d="M164.4,200.3c-4.6,0-8.3-3.7-8.3-8.3c0-4.6,3.7-8.3,8.3-8.3s8.3,3.7,8.3,8.3C172.7,196.5,169,200.3,164.4,200.3z
					 M164.4,190.3c-0.9,0-1.6,0.7-1.6,1.6s0.7,1.6,1.6,1.6s1.6-0.7,1.6-1.6S165.3,190.3,164.4,190.3z"/>
			</g>
			<g>
				<path d="M188.2,200.3c-4.6,0-8.3-3.7-8.3-8.3c0-4.6,3.7-8.3,8.3-8.3s8.3,3.7,8.3,8.3C196.5,196.5,192.8,200.3,188.2,200.3z
					 M188.2,190.3c-0.9,0-1.6,0.7-1.6,1.6s0.7,1.6,1.6,1.6s1.6-0.7,1.6-1.6S189.1,190.3,188.2,190.3z"/>
			</g>
			<g>
				<path d="M212,200.3c-4.6,0-8.3-3.7-8.3-8.3c0-4.6,3.7-8.3,8.3-8.3s8.3,3.7,8.3,8.3C220.3,196.5,216.6,200.3,212,200.3z
					 M212,190.3c-0.9,0-1.6,0.7-1.6,1.6s0.7,1.6,1.6,1.6s1.6-0.7,1.6-1.6S212.9,190.3,212,190.3z"/>
			</g>
			<g>
				<g>
					<path d="M190,325h-34c-2.8,0-5-2.2-5-5s2.2-5,5-5h34c2.8,0,5,2.2,5,5S192.8,325,190,325z"/>
				</g>
				<g>
					<path d="M336,325h-35c-2.8,0-5-2.2-5-5s2.2-5,5-5h35c2.8,0,5,2.2,5,5S338.8,325,336,325z"/>
				</g>
				<g>
					<path d="M281,325h-73c-2.8,0-5-2.2-5-5s2.2-5,5-5h73c2.8,0,5,2.2,5,5S283.8,325,281,325z"/>
				</g>
				<g>
					<path d="M272,355h-34c-2.8,0-5-2.2-5-5s2.2-5,5-5h34c2.8,0,5,2.2,5,5S274.8,355,272,355z"/>
				</g>
				<g>
					<path d="M330,385h-39c-2.8,0-5-2.2-5-5s2.2-5,5-5h39c2.8,0,5,2.2,5,5S332.8,385,330,385z"/>
				</g>
				<g>
					<path d="M499,412h-34c-2.8,0-5-2.2-5-5s2.2-5,5-5h34c2.8,0,5,2.2,5,5S501.8,412,499,412z"/>
				</g>
				<g>
					<path d="M377,355h-87c-2.8,0-5-2.2-5-5s2.2-5,5-5h87c2.8,0,5,2.2,5,5S379.8,355,377,355z"/>
				</g>
				<g>
					<path d="M424,385h-74c-2.8,0-5-2.2-5-5s2.2-5,5-5h74c2.8,0,5,2.2,5,5S426.8,385,424,385z"/>
				</g>
				<g>
					<path d="M219,355h-63c-2.8,0-5-2.2-5-5s2.2-5,5-5h63c2.8,0,5,2.2,5,5S221.8,355,219,355z"/>
				</g>
				<g>
					<path d="M244,412h-88c-2.8,0-5-2.2-5-5s2.2-5,5-5h88c2.8,0,5,2.2,5,5S246.8,412,244,412z"/>
				</g>
				<g>
					<path d="M381,412h-35c-2.8,0-5-2.2-5-5s2.2-5,5-5h35c2.8,0,5,2.2,5,5S383.8,412,381,412z"/>
				</g>
				<g>
					<path d="M327,412h-63c-2.8,0-5-2.2-5-5s2.2-5,5-5h63c2.8,0,5,2.2,5,5S329.8,412,327,412z"/>
				</g>
				<g>
					<path d="M272,385H156c-2.8,0-5-2.2-5-5s2.2-5,5-5h116c2.8,0,5,2.2,5,5S274.8,385,272,385z"/>
				</g>
				<g>
					<path d="M447,412h-48c-2.8,0-5-2.2-5-5s2.2-5,5-5h48c2.8,0,5,2.2,5,5S449.8,412,447,412z"/>
				</g>
				<g>
					<path d="M377,325h-21c-2.8,0-5-2.2-5-5s2.2-5,5-5h21c2.8,0,5,2.2,5,5S379.8,325,377,325z"/>
				</g>
			</g>
			<g>
				<g>
					<path d="M346.9,287.8c-1.3,0-2.5-0.5-3.5-1.5c-1.9-1.9-1.9-5.1,0-7l13.3-13.3l-13.3-13.3c-1.9-1.9-1.9-5.1,0-7s5.1-1.9,7,0
						l16.8,16.8c1.9,1.9,1.9,5.1,0,7l-16.8,16.8C349.4,287.3,348.2,287.8,346.9,287.8z"/>
				</g>
				<g>
					<path d="M323.2,287.8c-1.3,0-2.5-0.5-3.5-1.5l-16.8-16.8c-1.9-1.9-1.9-5.1,0-7l16.8-16.8c1.9-1.9,5.1-1.9,7,0s1.9,5.1,0,7
						L313.4,266l13.3,13.3c1.9,1.9,1.9,5.1,0,7C325.7,287.3,324.5,287.8,323.2,287.8z"/>
				</g>
			</g>
			<g>
				<path d="M280.6,293.8H157.9c-2.7,0-5-2.2-5-5v-45.6c0-2.7,2.2-5,5-5h122.7c2.7,0,5,2.2,5,5v45.6
					C285.5,291.6,283.3,293.8,280.6,293.8z M162.9,283.9h112.7v-35.7H162.9V283.9z"/>
			</g>
		</g>
		<g>
			<path d="M255,513.6c-60,0-116.5-23.4-158.9-65.8s-65.8-98.9-65.8-158.9c0-11.5,0.9-23.1,2.6-34.3c0.4-2.7,2.9-4.6,5.7-4.2
				c2.7,0.4,4.6,2.9,4.2,5.7c-1.7,10.8-2.5,21.8-2.5,32.8c0,57.4,22.3,111.3,62.9,151.9s94.5,62.9,151.9,62.9
				c44.4,0,87-13.4,123.2-38.8c2.2-1.6,5.3-1,6.9,1.2c1.6,2.2,1,5.3-1.2,6.9C345.9,499.5,301.4,513.6,255,513.6z"/>
		</g>
		<g>
			<path d="M423,152.1c-1.4,0-2.8-0.6-3.8-1.8c-29.4-34.8-69.9-59.8-113.9-70.4c-2.7-0.6-4.3-3.3-3.7-6s3.3-4.3,6-3.7
				c46.1,11.1,88.4,37.2,119.2,73.7c1.8,2.1,1.5,5.2-0.6,7C425.3,151.7,424.1,152.1,423,152.1z"/>
		</g>
		<g>
			<path d="M25.3,224.7c-0.7-0.3-1.1-0.9-1.3-2c-0.2-1.1-0.1-2,0.3-3c0.4-1.1,1.1-1.7,2.1-1.6l29.2,2.7l-15.3-10.6
				c-1.1-0.7-1.2-2-0.6-3.7c0.7-1.7,1.6-2.5,2.9-2.3l18.5,2.5L37.7,189c-0.8-0.5-0.9-1.4-0.5-2.5c0.4-0.9,1-1.7,1.8-2.4
				c0.8-0.7,1.6-0.9,2.3-0.6c0.2,0.1,0.4,0.2,0.5,0.3l26.9,21.3c1.2,1,1.4,2.7,0.6,4.9c-0.4,1-0.9,1.7-1.6,2.4
				c-0.7,0.6-1.4,0.9-2.1,0.8l-14.3-2.1l11.9,8.2c0.6,0.4,1,1.1,1,2c0.1,0.9-0.1,1.8-0.4,2.8c-0.4,1-0.9,1.8-1.6,2.4
				c-0.7,0.6-1.4,0.9-2.1,0.8l-34.2-2.5C25.7,224.8,25.5,224.8,25.3,224.7z"/>
			<path d="M76.1,190.3l-28.7-17.9c-0.6-0.3-0.8-0.9-0.9-1.6c0-0.7,0.2-1.4,0.6-2l9.7-15.4c0.4-0.6,0.9-0.9,1.6-0.9
				c0.7,0,1.4,0.2,2,0.6c0.7,0.4,1.2,1,1.5,1.6c0.3,0.6,0.3,1.2-0.1,1.8l-7.7,12.3l8.8,5.5l4.1-6.6c0.3-0.5,0.8-0.8,1.5-0.9
				c0.7,0,1.3,0.1,1.9,0.5c0.6,0.4,1,0.8,1.2,1.4c0.3,0.6,0.2,1.2-0.1,1.8l-4.1,6.6l8.9,5.6l7.7-12.3c0.3-0.5,0.9-0.8,1.6-0.8
				c0.7,0,1.4,0.2,2.1,0.7c0.6,0.4,1.1,0.9,1.4,1.5c0.3,0.6,0.3,1.2-0.1,1.8L79.5,189c-0.4,0.7-0.9,1.1-1.6,1.4
				C77.3,190.7,76.7,190.7,76.1,190.3z"/>
			<path d="M92.7,165.1l-25.7-22c-0.5-0.4-0.7-1-0.6-1.7c0.1-0.7,0.4-1.3,0.9-1.9l6.4-7.5c4.5-5.2,9-5.8,13.6-1.8
				c3.2,2.8,4.4,5.7,3.5,8.7c1.7-0.9,3.3-1.2,4.8-1.1c1.5,0.2,3.2,1,5.1,2.6l0.8,0.7c2.9,2.5,4.5,5,4.6,7.6c0.1,2.5-0.8,5-2.9,7.4
				l-7.1,8.2c-0.6,0.6-1.2,1-1.8,1.2C93.7,165.6,93.2,165.5,92.7,165.1z M80.9,146.3l3.7-4.3c0.9-1,1.2-2,1.1-3.1
				c-0.2-1-0.8-2-1.8-2.9c-1-0.9-2.1-1.3-3.1-1.3c-1.1,0-2,0.6-2.9,1.5l-3.7,4.3L80.9,146.3z M94.1,157.6l3.8-4.4
				c2.2-2.5,1.8-5-1.1-7.5l-0.6-0.5c-1.5-1.3-2.8-1.9-4-1.8c-1.2,0.1-2.3,0.7-3.4,2l-3.8,4.4L94.1,157.6z"/>
			<path d="M124.2,132.2l-20.4-27.1c-0.3-0.4-0.4-1-0.2-1.7c0.2-0.7,0.6-1.2,1.3-1.8l7.2-5.4c2.9-2.2,5.8-3.2,8.7-3
				c2.9,0.2,5.6,2,8.1,5.3l8.6,11.4c2.5,3.3,3.4,6.4,2.8,9.2c-0.6,2.8-2.3,5.4-5.3,7.6l-7.2,5.4c-0.7,0.5-1.4,0.8-2,0.8
				C125.1,132.9,124.5,132.7,124.2,132.2z M127.2,125.2l4.2-3.2c2.9-2.2,3.1-4.8,0.7-8l-8.6-11.4c-2.4-3.2-5-3.7-7.9-1.5l-4.2,3.2
				L127.2,125.2z"/>
			<path d="M150.9,113.1l-16-29.8c-0.3-0.6-0.3-1.2,0-1.8c0.3-0.6,0.8-1.1,1.5-1.5l16-8.6c0.6-0.3,1.2-0.3,1.8,0
				c0.6,0.4,1.1,0.9,1.4,1.5c0.4,0.7,0.6,1.4,0.5,2.1c0,0.7-0.4,1.2-0.9,1.5l-12.7,6.9l4.9,9.2l6.8-3.7c0.6-0.3,1.1-0.3,1.7,0
				c0.6,0.3,1.1,0.8,1.4,1.4c0.3,0.6,0.4,1.2,0.4,1.8c-0.1,0.6-0.4,1.1-1,1.5l-6.8,3.7l5,9.2l12.7-6.9c0.6-0.3,1.2-0.3,1.8,0.1
				c0.6,0.3,1.1,0.9,1.5,1.6c0.4,0.7,0.5,1.4,0.5,2c0,0.7-0.4,1.2-1,1.5l-16,8.6c-0.7,0.4-1.4,0.5-2.1,0.5
				C151.7,114,151.2,113.7,150.9,113.1z"/>
			<path d="M174.7,96.4c-0.3-0.8-0.3-1.6,0-2.6c0.3-1,0.8-1.6,1.5-1.8c0.4-0.2,1-0.1,1.6,0.1c0.7,0.2,1.4,0.5,2,0.8
				c0.7,0.3,1.6,0.5,2.6,0.6c1.1,0.1,2.2-0.1,3.3-0.5c1.5-0.6,2.7-1.4,3.4-2.5c0.8-1.1,0.9-2.3,0.4-3.7c-0.4-1-1-1.7-1.8-2.3
				c-0.8-0.6-1.8-0.9-2.9-1.1c-1.1-0.2-2.3-0.3-3.5-0.4c-1.3-0.1-2.6-0.2-3.9-0.4c-1.3-0.2-2.6-0.5-3.7-0.9
				c-1.2-0.4-2.3-1.1-3.3-2.1c-1-1-1.8-2.3-2.4-3.9c-0.6-1.8-0.9-3.4-0.7-5c0.2-1.6,0.7-3,1.6-4.1c0.9-1.2,1.9-2.2,3.1-3
				c1.2-0.8,2.5-1.5,4-2c0.8-0.3,1.7-0.6,2.7-0.8c1-0.2,2-0.4,3.2-0.5s2.1,0,3,0.3c0.9,0.3,1.4,0.9,1.7,1.6c0.3,0.7,0.3,1.6,0.2,2.5
				c-0.2,0.9-0.6,1.5-1.4,1.8c-0.3,0.1-1.2,0.1-2.7-0.1c-1.5-0.2-3,0.1-4.6,0.6c-1.7,0.6-2.9,1.5-3.6,2.5c-0.7,1-0.8,2.1-0.4,3.3
				c0.3,0.9,1,1.6,2.1,2c1,0.4,2.2,0.6,3.5,0.7c1.3,0,2.7,0.1,4.3,0.3c1.6,0.2,3.1,0.5,4.5,0.8s2.8,1.2,4.1,2.4s2.3,2.8,3.1,4.8
				c1.2,3.3,1.1,6.3-0.3,8.9c-1.4,2.6-3.9,4.5-7.3,5.8c-3,1.1-5.9,1.4-8.5,1C176.9,98.9,175.3,97.9,174.7,96.4z"/>
			<path d="M206.2,89.9l-8-32.9c-0.2-0.7,0-1.3,0.6-1.7c0.5-0.5,1.3-0.8,2.2-1.1c0.9-0.2,1.7-0.2,2.4-0.1c0.7,0.2,1.1,0.6,1.3,1.3
				l8,32.9c0.2,0.6,0,1.2-0.6,1.8c-0.6,0.5-1.3,0.9-2.1,1.1c-0.9,0.2-1.7,0.2-2.4,0C206.8,91,206.4,90.6,206.2,89.9z"/>
			<path d="M220.3,76.9l-1.8-14.4c-0.5-4.1,0.2-7.2,2.1-9.4c1.9-2.2,4.6-3.5,8.1-3.9c3.6-0.4,6.6,0.1,9.1,1.6
				c2.5,1.5,3.9,3.8,4.3,6.8c0.2,1.2,0,2.1-0.5,2.6c-0.5,0.5-1.3,0.8-2.4,1c-2.2,0.3-3.3-0.3-3.6-1.7c-0.3-1.5-0.9-2.7-1.7-3.5
				c-0.9-0.9-2.3-1.2-4.2-0.9c-3.6,0.4-5.1,2.6-4.6,6.6l1.8,14.4c0.5,4,2.5,5.7,6,5.3c1.7-0.2,2.9-0.9,3.7-2
				c0.8-1.1,1.1-2.7,0.8-4.6l-0.4-3l-4.1,0.5c-0.6,0.1-1.2-0.1-1.6-0.6c-0.4-0.5-0.7-1.1-0.8-1.8c-0.1-0.7,0-1.3,0.3-1.9
				c0.3-0.6,0.8-0.9,1.4-1l8.6-1.1c0.6-0.1,1.2,0.1,1.6,0.5c0.4,0.4,0.7,0.9,0.7,1.5l0.8,6.2c0.5,4.1-0.2,7.2-2.1,9.4
				c-1.9,2.2-4.7,3.5-8.3,3.9c-3.6,0.4-6.6-0.1-9-1.8C222.2,83.8,220.8,81,220.3,76.9z"/>
			<path d="M253.5,82.9l1.2-33.8c0-0.7,0.4-1.2,1-1.6c0.7-0.3,1.4-0.5,2.4-0.5c1.2,0,2.2,0.3,2.8,0.8c0.6,0.5,1.3,1.5,2,3l9.2,19.8
				l0.8-20.9c0-0.7,0.4-1.2,1-1.5c0.7-0.3,1.4-0.5,2.4-0.4c0.9,0,1.7,0.2,2.3,0.6c0.6,0.4,0.9,0.9,0.9,1.6l-1.2,33.8
				c0,0.7-0.4,1.2-1.1,1.5c-0.7,0.4-1.5,0.5-2.3,0.5c-1.8-0.1-3.1-0.8-3.8-2.3l-10.2-21.3l-0.8,20.9c0,0.7-0.4,1.2-1.1,1.5
				c-0.7,0.4-1.5,0.5-2.3,0.5c-0.9,0-1.7-0.3-2.3-0.7C253.8,84.1,253.5,83.6,253.5,82.9z"/>
		</g>
		<g>
			<path d="M491.9,383h-18.3c-2.5,0-4.7-1.9-5-4.4l-2.4-21.4c-2.9-1.1-5.6-2.6-8.1-4l-16.1,12.7c-2,1.6-4.8,1.4-6.6-0.4l-13-12.9
				c-1.8-1.8-2-4.6-0.4-6.6l12.8-16.3c-1.4-2.7-2.5-5.2-3.3-7.8l-21.1-2.4c-2.5-0.3-4.4-2.4-4.4-5v-18.3c0-2.5,1.9-4.7,4.4-5
				l21.5-2.5c1-2.7,2.2-5.2,3.5-7.4l-13.1-16.5c-1.6-2-1.4-4.9,0.4-6.7l12.9-12.8c1.8-1.8,4.7-1.9,6.6-0.4l16.9,13.5
				c2.4-1.1,4.8-2,7.1-2.6l2.5-20.4c0.3-2.5,2.4-4.4,5-4.4h18.3c2.5,0,4.7,1.9,5,4.4l2.5,20.3c2.4,0.6,4.8,1.3,7.1,2.3l16.9-13.3
				c2-1.6,4.8-1.4,6.6,0.4l12.9,12.9c1.8,1.8,2,4.7,0.4,6.6L530,281.3c1.1,2.3,2.1,4.7,3,7.4l20.6,2.5c2.5,0.3,4.4,2.4,4.4,5v18.3
				c0,2.5-1.9,4.7-4.4,5l-20.3,2.4c-0.7,2.4-1.6,5.1-2.9,7.8l12.9,16.4c1.6,2,1.4,4.8-0.4,6.6l-12.9,13c-1.8,1.8-4.6,2-6.6,0.4
				l-16.1-12.5c-2.4,1.3-5.1,2.7-8,3.7l-2.4,21.3C496.6,381.1,494.5,383,491.9,383z M478.1,373h9.3l2.3-20.1
				c0.2-2.1,1.7-3.8,3.7-4.3c4.4-1.1,8.5-3.4,11.7-5.3c1.8-1.1,4-0.9,5.7,0.3l15.3,11.9l6.7-6.7l-12.2-15.5
				c-1.3-1.6-1.4-3.8-0.4-5.6c1.8-3,3.1-6.6,4.3-11.5c0.5-2,2.2-3.5,4.3-3.8L548,310v-9.4l-19.5-2.3c-2-0.2-3.7-1.7-4.2-3.7
				c-1.2-4.4-2.6-8-4.5-11.2c-1.1-1.8-0.9-4.1,0.4-5.7l12.5-15.8l-6.6-6.6l-15.9,12.6c-1.6,1.3-3.8,1.4-5.6,0.4
				c-2.8-1.6-6-2.4-9.6-3.4l-1.4-0.3c-2-0.5-3.5-2.2-3.7-4.2l-2.3-19.3h-9.4l-2.3,19.3c-0.2,2-1.7,3.7-3.7,4.2
				c-3.7,0.9-7.5,2.1-11,4.1c-1.8,1-4,0.9-5.6-0.4l-15.9-12.7l-6.6,6.5l12.4,15.7c1.3,1.6,1.4,3.9,0.4,5.7c-1.8,3-4.1,7-5.2,11.1
				c-0.5,2-2.2,3.5-4.3,3.7l-20.2,2.3v9.4l20,2.3c2.1,0.2,3.8,1.7,4.3,3.8c0.9,3.7,2.5,7.4,4.9,11.5c1,1.8,0.9,4-0.4,5.6l-12.1,15.4
				l6.7,6.7l15.3-12.1c1.6-1.3,3.9-1.4,5.7-0.4l0.6,0.3c3.7,2.2,7.4,4.5,11.1,5.4c2,0.5,3.5,2.2,3.7,4.3L478.1,373z M482.8,326.8
				c-11.6,0-21.1-9.5-21.1-21.1s9.5-21.1,21.1-21.1c11.6,0,21.1,9.5,21.1,21.1S494.4,326.8,482.8,326.8z M482.8,294.6
				c-6.1,0-11.1,5-11.1,11.1s5,11.1,11.1,11.1c6.1,0,11.1-5,11.1-11.1S488.9,294.6,482.8,294.6z"/>
		</g>
	</g>
</g>
<g id="Layer_2">
</g>
</svg>
